<?xml version="1.0" encoding="UTF-8" standalone="no"?><!DOCTYPE svg PUBLIC "-//W3C//DTD SVG 1.1//EN" "http://www.w3.org/Graphics/SVG/1.1/DTD/svg11.dtd"><svg width="100%" height="100%" viewBox="0 0 200 200" version="1.1" xmlns="http://www.w3.org/2000/svg" xmlns:xlink="http://www.w3.org/1999/xlink" xml:space="preserve" style="fill-rule:evenodd;clip-rule:evenodd;stroke-linejoin:round;stroke-miterlimit:1.41421;"><path id="bg" d="M200,10c0,-5.519 -4.481,-10 -10,-10l-180,0c-5.519,0 -10,4.481 -10,10l0,180c0,5.519 4.481,10 10,10l180,0c5.519,0 10,-4.481 10,-10l0,-180Z" style="fill:#00a03e;"/><path d="M100,32l16.839,51.824l54.49,0l-44.084,32.029l16.839,51.823l-44.084,-32.029l-44.084,32.029l16.839,-51.823l-44.084,-32.029l54.49,0l16.839,-51.824Z" style="fill:#fff;"/><clipPath id="_clip1"><path d="M100,32l16.839,51.824l54.49,0l-44.084,32.029l16.839,51.823l-44.084,-32.029l-44.084,32.029l16.839,-51.823l-44.084,-32.029l54.49,0l16.839,-51.824Z"/></clipPath><g clip-path="url(#_clip1)"><path d="M152.367,44.657l-51.367,-16.657l-46.887,144.588l51.367,16.657l46.887,-144.588Z" style="fill:#fcd116;"/><path d="M101.586,27.593l-66.586,-21.593l-46.887,144.588l66.587,21.592l46.886,-144.587Z" style="fill:#002b7f;"/><path d="M181.332,59.657l-51.366,-16.657l-46.887,144.588l51.367,16.657l46.886,-144.588Z" style="fill:#ce1126;"/></g></svg>